<svg xmlns="http://www.w3.org/2000/svg" xml:space="preserve" id="Layer_1" x="0" y="0"
	style="enable-background:new 0 0 2500 2500" version="1.1" viewBox="0 0 2500 2500">
	<style>
		.st1 {
			fill-rule: evenodd;
			clip-rule: evenodd;
			fill: #5a5564
		}
	</style>
	<g id="Layer_x0020_1">
		<g id="_1353706316224">
			<g id="Designs">
				<g id="Dashboard---Order-Book---Collapsed">
					<g id="Group-20">
						<g id="Group-6">
							<g id="Totals:-Network">
								<g id="icon-wbtc">
									<path id="Fill-1"
										d="M1250 0c690.2 0 1250 559.6 1250 1250 0 690.2-559.8 1250-1250 1250C559.6 2500 0 1940.3 0 1250 0 559.6 559.6 0 1250 0z"
										style="fill-rule:evenodd;clip-rule:evenodd;fill:#fff" />
									<path id="Fill-3"
										d="m2038.5 524.7-68.6 68.6c339.5 371.4 339.5 940.3 0 1311.6l68.6 68.6c377.7-409.8 377.7-1040.7 0-1450.5v1.7z"
										class="st1" />
									<path id="Fill-5"
										d="M594.7 530.7c371.2-339.5 940.3-339.5 1311.6 0l68.6-68.6C1565.2 84.2 934 84.2 524.4 462l70.3 68.7z"
										class="st1" />
									<path id="Fill-7"
										d="M530.7 1905.5c-339.1-371.1-339.1-939.6 0-1310.9L462 526C84.2 935.8 84.2 1566.8 462 1976.4l68.7-70.9z"
										class="st1" />
									<path id="Fill-9"
										d="M1905.5 1968.9c-371.2 339.6-940.2 339.6-1311.5 0l-68.7 68.8c409.7 377.7 1040.9 377.7 1450.5 0l-70.3-68.8z"
										class="st1" />
									<path id="Fill-11"
										d="M1458 1075.2c0 137.2-214.6 120.6-282.9 120.6V954c68.3 0 282.9-21.5 282.9 121.2zm56 375.5c0 150-257.1 132.9-339.1 132.9v-266.2c82 0 339.1-23.4 339.1 133.3zm169.4-429.7c-13.7-143.3-137.2-191.3-293.6-206V617.6H1269v193.6c-31.9 0-64.3 0-96.6 1V617.6h-120.1v198.6H807.5v129.3s89.2-1.6 87.9 0c33.4-3.6 63.7 19.9 68.6 53.1v543.9c-.8 11.4-6 22-14.5 29.6-8.6 7.4-19.9 11.1-31.2 10.5 1.5 1.2-87.9 0-87.9 0l-24 144.2h243.9v201.9h120.9v-198.9h96.5v197.9h121v-199.4c204.1-12.5 346.5-62.7 364.3-253.9 14.5-153.7-57.9-222.4-173.4-250.1 70.2-35.6 114.3-98.6 103.8-203.3z"
										style="fill-rule:evenodd;clip-rule:evenodd;fill:#f09242" />
									<path id="Fill-13"
										d="M1249.8 97.5C613.7 97.9 98.5 613.6 98.6 1249.6c.1 636 515.7 1151.5 1151.8 1151.5 636 .1 1151.8-515.4 1152-1151.4-.9-636-516.5-1151.4-1152.6-1151.6v-.6zm0 2402.5C559.5 2499.9-.1 1940.2 0 1250 0 559.6 559.6.1 1249.9 0c690.2 0 1250 559.5 1250.1 1249.8-.8 690.2-560.1 1249.4-1250.2 1250.2z"
										style="fill-rule:evenodd;clip-rule:evenodd;fill:#282138" />
								</g>
							</g>
						</g>
					</g>
				</g>
			</g>
		</g>
	</g>
</svg>